<?xml version="1.0" standalone="no"?>
<!DOCTYPE svg PUBLIC "-//W3C//DTD SVG 20010904//EN"
 "http://www.w3.org/TR/2001/REC-SVG-20010904/DTD/svg10.dtd">
<svg version="1.0" xmlns="http://www.w3.org/2000/svg"
 width="956.000000pt" height="356.000000pt" viewBox="0 0 956.000000 356.000000"
 preserveAspectRatio="xMidYMid meet">

<g transform="translate(0.000000,356.000000) scale(0.100000,-0.100000)"
fill="#0091ff" stroke="none">
<path d="M900 3482 c0 -11 34 -83 75 -159 l74 -138 -36 -20 c-64 -36 -191
-135 -234 -183 -66 -74 -135 -186 -168 -272 -28 -73 -61 -221 -61 -276 l0 -24
971 0 972 0 -6 83 c-18 245 -175 494 -407 642 -41 27 -76 49 -78 50 -2 2 31
64 73 140 80 147 90 179 53 173 -17 -2 -40 -36 -100 -143 -43 -78 -83 -139
-90 -138 -7 1 -40 12 -73 24 -209 74 -466 74 -681 0 l-84 -29 -24 42 c-13 22
-48 86 -78 141 -40 73 -61 101 -76 103 -16 3 -22 -2 -22 -16z m220 -567 c75
-39 44 -155 -41 -155 -85 0 -110 115 -34 158 27 15 41 15 75 -3z m899 -11 c40
-33 43 -83 6 -119 -65 -66 -173 12 -130 95 28 54 78 63 124 24z"/>
<path d="M5605 2531 c-49 -30 -135 -127 -135 -153 0 -15 25 -48 72 -95 95 -95
103 -95 196 1 40 41 72 83 72 94 0 23 -70 104 -124 144 -46 33 -43 33 -81 9z"/>
<path d="M175 2352 c-51 -24 -101 -76 -117 -121 -10 -27 -13 -157 -13 -536 l0
-500 28 -48 c74 -126 244 -144 341 -37 19 21 40 56 46 77 8 26 10 191 8 539
l-3 500 -28 42 c-58 89 -174 126 -262 84z"/>
<path d="M2716 2355 c-49 -17 -93 -59 -117 -110 -17 -37 -19 -74 -19 -540 0
-560 -1 -547 73 -612 102 -89 262 -61 324 58 23 42 23 42 23 550 0 334 -4 517
-11 536 -5 15 -25 43 -42 62 -62 65 -147 86 -231 56z"/>
<path d="M560 1614 c0 -508 3 -728 11 -755 16 -51 62 -105 112 -131 34 -18 64
-23 155 -26 l112 -4 0 -262 c0 -291 4 -309 71 -373 43 -40 77 -53 140 -53 87
0 151 38 192 115 20 37 22 57 25 308 l4 267 144 0 144 0 0 -248 c0 -281 7
-327 62 -379 49 -46 90 -63 153 -63 93 0 158 41 196 125 17 36 19 69 19 301
l0 262 113 4 c128 4 177 23 223 83 54 72 53 54 54 828 l0 717 -965 0 -965 0 0
-716z"/>
<path d="M8292 2105 c-273 -50 -437 -264 -436 -565 2 -285 141 -483 390 -552
75 -21 100 -22 459 -22 420 -1 441 2 573 66 170 84 276 280 275 513 -1 282
-140 478 -389 551 -50 15 -113 18 -429 20 -280 2 -388 0 -443 -11z m816 -274
c109 -49 167 -153 166 -298 0 -71 -5 -90 -33 -147 -35 -71 -82 -116 -153 -143
-64 -25 -657 -32 -750 -9 -116 30 -184 98 -214 217 -37 145 21 309 130 366 77
40 100 42 456 40 340 -2 346 -2 398 -26z"/>
<path d="M3508 2070 c-10 -6 -18 -15 -18 -20 0 -5 143 -225 318 -487 315 -472
373 -548 440 -574 78 -31 228 -27 294 7 61 31 118 108 428 573 258 388 312
475 303 489 -9 15 -29 17 -140 17 -101 0 -134 -3 -148 -15 -10 -8 -139 -198
-288 -423 -278 -420 -291 -437 -336 -411 -9 5 -135 188 -281 407 -146 219
-275 408 -288 420 -20 20 -34 22 -145 25 -73 1 -129 -2 -139 -8z"/>
<path d="M5532 2064 l-22 -15 0 -523 c0 -435 2 -525 14 -542 13 -17 27 -19
116 -19 89 0 103 2 116 19 12 17 14 106 14 538 0 613 13 558 -128 558 -63 0
-94 -4 -110 -16z"/>
<path d="M6012 2068 c-7 -7 -12 -18 -12 -25 0 -17 605 -924 654 -980 20 -23
61 -54 91 -68 45 -23 67 -27 142 -27 112 0 173 23 236 91 55 59 649 947 655
980 3 13 -1 27 -9 32 -20 12 -220 11 -256 -1 -25 -9 -79 -84 -304 -421 -150
-226 -282 -415 -292 -421 -44 -23 -58 -7 -340 417 -199 298 -285 418 -303 425
-37 15 -247 13 -262 -2z"/>
</g>
</svg>
