<svg xmlns="http://www.w3.org/2000/svg" xmlns:xlink="http://www.w3.org/1999/xlink" version="1.1" width="1000" height="1000" viewBox="0 0 1000 1000" xml:space="preserve">
<desc>Created with Fabric.js 3.5.0</desc>
<defs>
</defs>
<rect x="0" y="0" width="100%" height="100%" fill="rgba(255,255,255,0)"/>
<g transform="matrix(0.1552 0 0 0.1552 672.7367 460.3498)" id="782468">
<g style="" vector-effect="non-scaling-stroke">
		<g transform="matrix(1 0 0 1 1404.8238 137.8461)" id="vivo_logo">
<path style="stroke: none; stroke-width: 1; stroke-dasharray: none; stroke-linecap: butt; stroke-dashoffset: 0; stroke-linejoin: miter; stroke-miterlimit: 4; is-custom-font: none; font-file-url: none; fill: rgb(0,145,255); fill-rule: nonzero; opacity: 1;" transform=" translate(-3360.8238, -649.8462)" d="m 3522.471385 853.333333 h -336.436513 c -189.111795 0 -205.929026 -155.871179 -205.929026 -203.487179 s 16.817231 -203.48718 205.929026 -203.48718 h 336.436513 c 189.124923 0 205.942153 155.87118 205.942153 203.48718 s -16.81723 203.487179 -205.942153 203.487179 m 7.31241 -577.641025 h -337.92 c -351.179487 0 -382.424616 286.588718 -382.424616 374.153846 s 31.245129 374.153846 382.424616 374.153846 h 337.92 c 351.192615 0 382.424615 -286.588718 382.424615 -374.153846 s -31.232 -374.153846 -382.424615 -374.153846" stroke-linecap="round"/>
</g>
		<g transform="matrix(1 0 0 1 -570.9715 0.0008)" id="vivo_logo">
<path style="stroke: none; stroke-width: 1; stroke-dasharray: none; stroke-linecap: butt; stroke-dashoffset: 0; stroke-linejoin: miter; stroke-miterlimit: 4; is-custom-font: none; font-file-url: none; fill: rgb(0,145,255); fill-rule: nonzero; opacity: 1;" transform=" translate(-1385.0285, -512.0008)" d="m 2741.894564 301.948718 h -109.554872 c -46.920205 0 -56.582564 7.890051 -74.67323 34.382769 c -18.116923 26.47959 -331.460923 498.372923 -331.460924 498.372923 c -10.003692 14.506667 -20.611282 20.374974 -33.792 20.374975 c -13.193846 0 -23.788308 -5.868308 -33.778871 -20.374975 c 0 0 -313.370256 -471.893333 -331.474052 -498.372923 c -18.090666 -26.505846 -27.753025 -34.382769 -74.67323 -34.382769 h -109.554872 c -25.206154 0 -36.758974 19.442872 -20.900103 43.191795 l 374.258872 560.548102 c 58.066051 84.256821 100.680205 118.311385 196.122256 118.311385 s 138.056205 -34.054564 196.135385 -118.311385 l 374.245744 -560.548102 c 15.858872 -23.748923 4.332308 -43.191795 -20.900103 -43.191795 m -1442.198974 45.778051 c 0 -32.794256 12.8 -45.778051 45.108513 -45.778051 h 80.462769 c 32.295385 0 45.095385 12.996923 45.095384 45.778051 v 630.482052 c 0 32.794256 -12.8 45.791179 -45.095384 45.791179 h -80.462769 c -32.295385 0 -45.108513 -12.996923 -45.108513 -45.791179 z m -6.721641 -199.771897 c -26.046359 -26.033231 -26.046359 -46.683897 0 -72.730257 l 55.676718 -55.676718 c 26.046359 -26.059487 46.697026 -26.059487 72.743384 -0.013128 l 55.702975 55.676718 c 26.033231 26.059487 26.033231 46.710154 0 72.756513 l -55.702975 55.676718 c -26.046359 26.046359 -46.697026 26.046359 -72.730256 0 l -55.689846 -55.676718 z m -166.439385 153.993846 h -109.436718 c -46.867692 0 -56.530051 7.903179 -74.594461 34.382769 c -18.090667 26.47959 -331.11959 498.359795 -331.11959 498.359795 c -9.977436 14.506667 -20.571897 20.374974 -33.739487 20.374974 c -13.193846 0 -23.775179 -5.868308 -33.765744 -20.374974 c 0 0 -313.028923 -471.893333 -331.093333 -498.372923 c -18.06441 -26.466462 -27.726769 -34.369641 -74.594462 -34.369641 h -109.436718 c -28.120615 0 -36.719589 19.442872 -20.873846 43.191795 c 15.819487 23.762051 373.838769 560.534974 373.838769 560.534974 c 58.013539 84.269949 100.601436 118.324513 195.925334 118.324513 c 95.310769 0 137.911795 -34.054564 195.912205 -118.324513 l 373.851897 -560.534974 c 15.832615 -23.748923 7.246769 -43.191795 -20.873846 -43.191795" stroke-linecap="round"/>
</g>
</g>
</g>
<g transform="matrix(0.634 0 0 0.634 172.4873 460.3405)" id="109438">
<g style="" vector-effect="non-scaling-stroke">
		<g transform="matrix(1 0 0 1 -199.9125 8.141)" id="Capa_1">
<path style="stroke: none; stroke-width: 1; stroke-dasharray: none; stroke-linecap: butt; stroke-dashoffset: 0; stroke-linejoin: miter; stroke-miterlimit: 4; is-custom-font: none; font-file-url: none; fill: rgb(0,145,255); fill-rule: nonzero; opacity: 1;" transform=" translate(-76.6115, -284.665)" d="M 76.774 179.141 c -9.529 0 -17.614 3.323 -24.26 9.969 c -6.646 6.646 -9.97 14.621 -9.97 23.929 v 142.914 c 0 9.541 3.323 17.619 9.97 24.266 c 6.646 6.646 14.731 9.97 24.26 9.97 c 9.522 0 17.558 -3.323 24.101 -9.97 c 6.53 -6.646 9.804 -14.725 9.804 -24.266 V 213.039 c 0 -9.309 -3.323 -17.283 -9.97 -23.929 C 94.062 182.464 86.082 179.141 76.774 179.141 z" stroke-linecap="round"/>
</g>
		<g transform="matrix(1 0 0 1 -0.16 -189.7754)" id="Capa_1">
<path style="stroke: none; stroke-width: 1; stroke-dasharray: none; stroke-linecap: butt; stroke-dashoffset: 0; stroke-linejoin: miter; stroke-miterlimit: 4; is-custom-font: none; font-file-url: none; fill: rgb(0,145,255); fill-rule: nonzero; opacity: 1;" transform=" translate(-276.364, -86.7486)" d="M 351.972 50.847 L 375.57 7.315 c 1.549 -2.882 0.998 -5.092 -1.658 -6.646 c -2.883 -1.34 -5.098 -0.661 -6.646 1.989 l -23.928 43.88 c -21.055 -9.309 -43.324 -13.972 -66.807 -13.972 c -23.488 0 -45.759 4.664 -66.806 13.972 l -23.929 -43.88 c -1.555 -2.65 -3.77 -3.323 -6.646 -1.989 c -2.662 1.561 -3.213 3.764 -1.658 6.646 l 23.599 43.532 c -23.929 12.203 -42.987 29.198 -57.167 51.022 c -14.18 21.836 -21.273 45.698 -21.273 71.628 h 307.426 c 0 -25.924 -7.094 -49.787 -21.273 -71.628 C 394.623 80.045 375.675 63.05 351.972 50.847 z M 215.539 114.165 c -2.552 2.558 -5.6 3.831 -9.143 3.831 c -3.55 0 -6.536 -1.273 -8.972 -3.831 c -2.436 -2.546 -3.654 -5.582 -3.654 -9.137 c 0 -3.543 1.218 -6.585 3.654 -9.137 c 2.436 -2.546 5.429 -3.819 8.972 -3.819 s 6.591 1.273 9.143 3.819 c 2.546 2.558 3.825 5.594 3.825 9.137 C 219.357 108.577 218.079 111.619 215.539 114.165 z M 355.625 114.165 c -2.441 2.558 -5.434 3.831 -8.971 3.831 c -3.551 0 -6.598 -1.273 -9.145 -3.831 c -2.551 -2.546 -3.824 -5.582 -3.824 -9.137 c 0 -3.543 1.273 -6.585 3.824 -9.137 c 2.547 -2.546 5.594 -3.819 9.145 -3.819 c 3.543 0 6.529 1.273 8.971 3.819 c 2.438 2.558 3.654 5.594 3.654 9.137 C 359.279 108.577 358.062 111.619 355.625 114.165 z" stroke-linecap="round"/>
</g>
		<g transform="matrix(1 0 0 1 -0.008 92.7255)" id="Capa_1">
<path style="stroke: none; stroke-width: 1; stroke-dasharray: none; stroke-linecap: butt; stroke-dashoffset: 0; stroke-linejoin: miter; stroke-miterlimit: 4; is-custom-font: none; font-file-url: none; fill: rgb(0,145,255); fill-rule: nonzero; opacity: 1;" transform=" translate(-276.516, -369.2495)" d="M 123.971 406.804 c 0 10.202 3.543 18.838 10.63 25.925 c 7.093 7.087 15.729 10.63 25.924 10.63 h 24.596 l 0.337 75.454 c 0 9.528 3.323 17.619 9.969 24.266 s 14.627 9.97 23.929 9.97 c 9.523 0 17.613 -3.323 24.26 -9.97 s 9.97 -14.737 9.97 -24.266 v -75.447 h 45.864 v 75.447 c 0 9.528 3.322 17.619 9.969 24.266 s 14.73 9.97 24.26 9.97 c 9.523 0 17.613 -3.323 24.26 -9.97 s 9.969 -14.737 9.969 -24.266 v -75.447 h 24.928 c 9.969 0 18.494 -3.544 25.594 -10.631 c 7.086 -7.087 10.631 -15.723 10.631 -25.924 V 185.45 H 123.971 V 406.804 z" stroke-linecap="round"/>
</g>
		<g transform="matrix(1 0 0 1 199.916 8.141)" id="Capa_1">
<path style="stroke: none; stroke-width: 1; stroke-dasharray: none; stroke-linecap: butt; stroke-dashoffset: 0; stroke-linejoin: miter; stroke-miterlimit: 4; is-custom-font: none; font-file-url: none; fill: rgb(0,145,255); fill-rule: nonzero; opacity: 1;" transform=" translate(-476.44, -284.665)" d="M 476.275 179.141 c -9.309 0 -17.283 3.274 -23.93 9.804 c -6.646 6.542 -9.969 14.578 -9.969 24.094 v 142.914 c 0 9.541 3.322 17.619 9.969 24.266 s 14.627 9.97 23.93 9.97 c 9.523 0 17.613 -3.323 24.26 -9.97 s 9.969 -14.725 9.969 -24.266 V 213.039 c 0 -9.517 -3.322 -17.552 -9.969 -24.094 C 493.888 182.415 485.798 179.141 476.275 179.141 z" stroke-linecap="round"/>
</g>
</g>
</g>
</svg>